HIERARCHY
ROOT Hips
{
	OFFSET 0.000000 83.214638 0.000000
	CHANNELS 6 Xposition Yposition Zposition Xrotation Yrotation Zrotation
	JOINT Pelvis
	{
		OFFSET 0.000000 0.000000 0.000000
		CHANNELS 3 Xrotation Yrotation Zrotation
		JOINT LeftUpLeg
		{
			OFFSET 8.479700 -4.795502 -0.379100
			CHANNELS 3 Xrotation Yrotation Zrotation
			JOINT LeftLeg
			{
				OFFSET 0.024144 -32.555107 0.112900
				CHANNELS 3 Xrotation Yrotation Zrotation
				JOINT LeftFoot
				{
					OFFSET -0.024144 -32.638630 -3.012600
					CHANNELS 3 Xrotation Yrotation Zrotation
					JOINT LeftToeBase
					{
						OFFSET 0.970200 -13.225400 11.864200
						CHANNELS 3 Xrotation Yrotation Zrotation
						End Site
						{
							OFFSET 0.000000 12.319262 0.000000
						}
					}
					JOINT LFootTongue
					{
						OFFSET 1.142400 -1.059800 6.665200
						CHANNELS 3 Xrotation Yrotation Zrotation
						End Site
						{
							OFFSET 0.000000 12.319262 0.000000
						}
					}
				}
				JOINT LeftPantLeg
				{
					OFFSET 0.918482 -16.533964 -2.284700
					CHANNELS 3 Xrotation Yrotation Zrotation
					End Site
					{
						OFFSET 0.350399 24.744368 0.000000
					}
				}
			}
		}
		JOINT RightUpLeg
		{
			OFFSET -8.479700 -4.795502 -0.379100
			CHANNELS 3 Xrotation Yrotation Zrotation
			JOINT RightLeg
			{
				OFFSET -0.023144 -32.555092 0.112900
				CHANNELS 3 Xrotation Yrotation Zrotation
				JOINT RightFoot
				{
					OFFSET 0.023144 -32.638641 -3.012700
					CHANNELS 3 Xrotation Yrotation Zrotation
					JOINT RightToeBase
					{
						OFFSET -0.970200 -13.225400 11.864200
						CHANNELS 3 Xrotation Yrotation Zrotation
						End Site
						{
							OFFSET 0.000000 12.319244 0.000000
						}
					}
					JOINT RFootTongue
					{
						OFFSET -1.142200 -1.059800 6.665200
						CHANNELS 3 Xrotation Yrotation Zrotation
						End Site
						{
							OFFSET 0.000000 12.319243 0.000000
						}
					}
				}
				JOINT RightPantLeg
				{
					OFFSET -0.919482 -16.533978 -2.284800
					CHANNELS 3 Xrotation Yrotation Zrotation
					End Site
					{
						OFFSET -0.350400 24.744419 0.000000
					}
				}
			}
		}
	}
	JOINT Spine
	{
		OFFSET 0.000000 7.722000 1.166200
		CHANNELS 3 Xrotation Yrotation Zrotation
		JOINT Spine1
		{
			OFFSET 0.000000 12.024101 0.248800
			CHANNELS 3 Xrotation Yrotation Zrotation
			JOINT Spine2
			{
				OFFSET 0.000000 11.502998 -0.491200
				CHANNELS 3 Xrotation Yrotation Zrotation
				JOINT Neck
				{
					OFFSET 0.000000 18.430702 -3.123100
					CHANNELS 3 Xrotation Yrotation Zrotation
					JOINT Head
					{
						OFFSET 0.000000 9.051102 1.034000
						CHANNELS 3 Xrotation Yrotation Zrotation
						JOINT HairB
						{
							OFFSET 0.208400 24.786102 24.822300
							CHANNELS 3 Xrotation Yrotation Zrotation
							End Site
							{
								OFFSET 0.000000 32.263779 0.000000
							}
						}
						JOINT HairA
						{
							OFFSET -7.081100 24.428299 23.196600
							CHANNELS 3 Xrotation Yrotation Zrotation
							End Site
							{
								OFFSET 0.000000 32.263779 0.000000
							}
						}
						JOINT Hat
						{
							OFFSET 16.728800 15.048294 -15.439601
							CHANNELS 3 Xrotation Yrotation Zrotation
							End Site
							{
								OFFSET 0.000000 32.263779 0.000000
							}
						}
					}
				}
				JOINT LeftShoulder
				{
					OFFSET 6.197800 13.665199 -4.064700
					CHANNELS 3 Xrotation Yrotation Zrotation
					JOINT LeftArm
					{
						OFFSET 7.778100 -0.187103 -1.709300
						CHANNELS 3 Xrotation Yrotation Zrotation
						JOINT LeftForeArm
						{
							OFFSET 22.049376 0.000000 0.000000
							CHANNELS 3 Xrotation Yrotation Zrotation
							JOINT LeftHand
							{
								OFFSET 23.009392 0.000000 0.000000
								CHANNELS 3 Xrotation Yrotation Zrotation
								JOINT LeftHandThumb1
								{
									OFFSET 3.507191 -2.063065 3.133727
									CHANNELS 3 Xrotation Yrotation Zrotation
									JOINT LeftHandThumb2
									{
										OFFSET 3.101337 -1.790558 1.790558
										CHANNELS 3 Xrotation Yrotation Zrotation
										JOINT LeftHandThumb3
										{
											OFFSET 3.058640 -1.765907 1.765906
											CHANNELS 3 Xrotation Yrotation Zrotation
											End Site
											{
												OFFSET -0.415260 3.926476 -0.049563
											}
										}
									}
								}
								JOINT LeftHandIndex1
								{
									OFFSET 11.334419 -0.901459 3.706815
									CHANNELS 3 Xrotation Yrotation Zrotation
									JOINT LeftHandIndex2
									{
										OFFSET 3.283112 0.000000 0.000000
										CHANNELS 3 Xrotation Yrotation Zrotation
										JOINT LeftHandIndex3
										{
											OFFSET 3.323853 0.000000 0.000000
											CHANNELS 3 Xrotation Yrotation Zrotation
											End Site
											{
												OFFSET -1.135597 3.097809 0.402452
											}
										}
									}
								}
								JOINT LeftHandMiddle1
								{
									OFFSET 11.335861 0.000000 0.000000
									CHANNELS 3 Xrotation Yrotation Zrotation
									JOINT LeftHandMiddle2
									{
										OFFSET 3.410492 0.000000 0.000000
										CHANNELS 3 Xrotation Yrotation Zrotation
										JOINT LeftHandMiddle3
										{
											OFFSET 3.312172 0.000000 0.000000
											CHANNELS 3 Xrotation Yrotation Zrotation
											End Site
											{
												OFFSET -1.150200 3.080154 0.400270
											}
										}
									}
								}
								JOINT LeftHandRing1
								{
									OFFSET 11.514786 -0.013176 -3.003090
									CHANNELS 3 Xrotation Yrotation Zrotation
									JOINT LeftHandRing2
									{
										OFFSET 3.053307 0.000000 0.000000
										CHANNELS 3 Xrotation Yrotation Zrotation
										JOINT LeftHandRing3
										{
											OFFSET 3.295807 0.000000 0.000000
											CHANNELS 3 Xrotation Yrotation Zrotation
											End Site
											{
												OFFSET -1.281006 3.013344 0.375733
											}
										}
									}
								}
								JOINT LeftHandPinky1
								{
									OFFSET 10.518692 -0.960396 -5.730441
									CHANNELS 3 Xrotation Yrotation Zrotation
									JOINT LeftHandPinky2
									{
										OFFSET 2.861649 0.000000 0.000000
										CHANNELS 3 Xrotation Yrotation Zrotation
										JOINT LeftHandPinky3
										{
											OFFSET 2.863380 0.000000 0.000000
											CHANNELS 3 Xrotation Yrotation Zrotation
											End Site
											{
												OFFSET -0.843597 2.711159 0.369971
											}
										}
									}
								}
							}
							JOINT LSleeve
							{
								OFFSET 6.676277 -0.344902 -1.011730
								CHANNELS 3 Xrotation Yrotation Zrotation
								End Site
								{
									OFFSET 0.000000 14.885353 0.000000
								}
							}
						}
					}
				}
				JOINT RightShoulder
				{
					OFFSET -6.197800 13.665199 -4.064700
					CHANNELS 3 Xrotation Yrotation Zrotation
					JOINT RightArm
					{
						OFFSET -7.778100 -0.187103 -1.709300
						CHANNELS 3 Xrotation Yrotation Zrotation
						JOINT RightForeArm
						{
							OFFSET -22.049376 0.000000 0.000000
							CHANNELS 3 Xrotation Yrotation Zrotation
							JOINT RightHand
							{
								OFFSET -23.009392 0.000000 0.000000
								CHANNELS 3 Xrotation Yrotation Zrotation
								JOINT RightHandThumb1
								{
									OFFSET -3.507191 -2.063065 3.133727
									CHANNELS 3 Xrotation Yrotation Zrotation
									JOINT RightHandThumb2
									{
										OFFSET -3.101337 -1.790558 1.790558
										CHANNELS 3 Xrotation Yrotation Zrotation
										JOINT RightHandThumb3
										{
											OFFSET -3.058640 -1.765907 1.765906
											CHANNELS 3 Xrotation Yrotation Zrotation
											End Site
											{
												OFFSET 0.415260 3.926476 -0.049563
											}
										}
									}
								}
								JOINT RightHandIndex1
								{
									OFFSET -11.334419 -0.901459 3.706815
									CHANNELS 3 Xrotation Yrotation Zrotation
									JOINT RightHandIndex2
									{
										OFFSET -3.283112 0.000000 0.000000
										CHANNELS 3 Xrotation Yrotation Zrotation
										JOINT RightHandIndex3
										{
											OFFSET -3.323853 0.000000 0.000000
											CHANNELS 3 Xrotation Yrotation Zrotation
											End Site
											{
												OFFSET 1.135597 3.097809 0.402452
											}
										}
									}
								}
								JOINT RightHandMiddle1
								{
									OFFSET -11.335861 0.000000 0.000000
									CHANNELS 3 Xrotation Yrotation Zrotation
									JOINT RightHandMiddle2
									{
										OFFSET -3.410492 0.000000 0.000000
										CHANNELS 3 Xrotation Yrotation Zrotation
										JOINT RightHandMiddle3
										{
											OFFSET -3.312172 0.000000 0.000000
											CHANNELS 3 Xrotation Yrotation Zrotation
											End Site
											{
												OFFSET 1.150200 3.080154 0.400270
											}
										}
									}
								}
								JOINT RightHandRing1
								{
									OFFSET -11.514786 -0.013176 -3.003090
									CHANNELS 3 Xrotation Yrotation Zrotation
									JOINT RightHandRing2
									{
										OFFSET -3.053307 0.000000 0.000000
										CHANNELS 3 Xrotation Yrotation Zrotation
										JOINT RightHandRing3
										{
											OFFSET -3.295807 0.000000 0.000000
											CHANNELS 3 Xrotation Yrotation Zrotation
											End Site
											{
												OFFSET 1.281006 3.013344 0.375733
											}
										}
									}
								}
								JOINT RightHandPinky1
								{
									OFFSET -10.518692 -0.960396 -5.730441
									CHANNELS 3 Xrotation Yrotation Zrotation
									JOINT RightHandPinky2
									{
										OFFSET -2.861649 0.000000 0.000000
										CHANNELS 3 Xrotation Yrotation Zrotation
										JOINT RightHandPinky3
										{
											OFFSET -2.863380 0.000000 0.000000
											CHANNELS 3 Xrotation Yrotation Zrotation
											End Site
											{
												OFFSET 0.843597 2.711159 0.369971
											}
										}
									}
								}
							}
							JOINT RSleeve
							{
								OFFSET -6.676277 -0.344902 -1.011730
								CHANNELS 3 Xrotation Yrotation Zrotation
								End Site
								{
									OFFSET 0.000000 14.885353 0.000000
								}
							}
						}
					}
				}
				JOINT Backpack
				{
					OFFSET 0.000000 -2.471497 36.677502
					CHANNELS 3 Xrotation Yrotation Zrotation
					End Site
					{
						OFFSET 0.000000 20.427315 0.000000
					}
				}
				JOINT Hood
				{
					OFFSET 0.000000 18.754097 -10.431000
					CHANNELS 3 Xrotation Yrotation Zrotation
					JOINT Hood1
					{
						OFFSET 0.000000 -5.011002 -7.685901
						CHANNELS 3 Xrotation Yrotation Zrotation
						End Site
						{
							OFFSET 0.000000 9.175140 0.000000
						}
					}
				}
				JOINT LHoodieString
				{
					OFFSET 5.250500 16.397697 3.089900
					CHANNELS 3 Xrotation Yrotation Zrotation
					JOINT LHoodieString1
					{
						OFFSET 0.257700 -6.364304 3.694600
						CHANNELS 3 Xrotation Yrotation Zrotation
						JOINT LHoodieString2
						{
							OFFSET 0.000000 -9.643799 2.679100
							CHANNELS 3 Xrotation Yrotation Zrotation
							End Site
							{
								OFFSET 0.000000 10.009018 0.000000
							}
						}
					}
				}
				JOINT RHoodieString
				{
					OFFSET -5.250500 16.397697 3.089900
					CHANNELS 3 Xrotation Yrotation Zrotation
					JOINT RHoodieString1
					{
						OFFSET -0.257700 -6.364304 3.694600
						CHANNELS 3 Xrotation Yrotation Zrotation
						JOINT RHoodieString2
						{
							OFFSET 0.000000 -9.643799 2.679100
							CHANNELS 3 Xrotation Yrotation Zrotation
							End Site
							{
								OFFSET 0.000000 10.009018 0.000000
							}
						}
					}
				}
			}
			JOINT LBackpack_Strap
			{
				OFFSET 15.223200 -7.719803 -6.610900
				CHANNELS 3 Xrotation Yrotation Zrotation
				End Site
				{
					OFFSET 0.000000 16.040596 0.000000
				}
			}
			JOINT RBackpack_Strap
			{
				OFFSET -15.223000 -7.719803 -6.610900
				CHANNELS 3 Xrotation Yrotation Zrotation
				End Site
				{
					OFFSET 0.000000 16.040596 0.000000
				}
			}
		}
	}
	JOINT BoyFacialAnim_Joint
	{
		OFFSET 1.000000 -82.208099 -1.550900
		CHANNELS 3 Xrotation Yrotation Zrotation
		End Site
		{
			OFFSET 0.000000 30.012791 0.000000
		}
	}
}
MOTION
Frames: 4
Frame Time: 0.033333
0.829087 74.989304 -0.424584 9.545366 -61.619371 10.152456 -0.000000 0.000000 0.000000 -36.688935 11.885642 23.486239 36.107320 -6.737517 1.193370 -5.486797 -2.274086 -16.039332 -0.000000 0.000002 0.000000 -0.000000 0.000002 0.000000 0.000000 0.000002 -0.000001 -31.263480 -19.563514 -32.364585 35.165396 3.481110 -4.079119 -11.010863 0.861007 22.482568 0.000000 -0.000000 0.000000 0.000000 -0.000000 0.000000 0.000001 -0.000000 -0.000001 15.067035 -0.323334 -4.285163 5.872791 0.571295 -2.801526 5.868669 0.648871 -2.855443 -3.633307 1.442053 3.746677 -20.005680 54.834142 2.407299 -0.000000 0.000000 -0.000000 -0.000000 0.000000 -0.000000 -0.000000 0.000000 -0.000000 1.827767 -3.192710 -12.272889 -39.387399 26.350397 -34.911139 0.413944 -46.808519 0.393662 -10.315016 -0.130775 0.363040 40.109920 -15.297189 -0.360471 5.639875 28.097850 11.338792 0.000000 0.000001 -0.000001 6.882167 2.840040 -61.140445 8.248007 7.640090 -89.897850 -0.000002 -0.000001 -0.000002 -2.345556 4.688835 -62.655224 8.754113 9.897120 -87.051253 0.000004 0.000000 -0.000001 -9.042522 10.045663 -60.766185 8.524058 9.508849 -66.893001 0.000003 0.000002 -0.000002 -17.946976 14.754964 -51.485891 8.868472 8.667047 -84.811989 -0.000003 -0.000001 -0.000000 -0.000000 -0.000001 0.000001 0.630205 7.252252 8.703758 7.936139 -9.680172 53.429978 -22.864673 36.191844 17.964794 -27.375299 10.434521 -17.812582 -2.346149 -6.100497 10.731464 2.364049 -23.806276 -8.771102 0.000001 -0.000001 -0.000002 -0.054730 0.532105 0.738734 0.019750 -0.087293 5.078538 -0.000001 0.000002 0.000006 0.348265 -5.918513 2.583826 1.432604 -4.204271 24.052093 0.000003 0.000002 -0.000000 1.205860 -11.756063 4.154787 1.794818 -3.771853 26.865439 -0.000000 -0.000002 0.000002 2.126271 -19.166867 11.319926 3.354741 -2.122226 18.828586 -0.000000 -0.000000 0.000000 -0.000002 0.000002 -0.000001 -0.000000 0.000003 -0.000002 -0.000000 0.000003 -0.000002 -0.000000 0.000003 -0.000002 -0.000000 0.000003 -0.000002 -0.000000 0.000003 -0.000002 -0.000000 0.000002 0.000000 -0.000000 0.000003 -0.000002 -0.000000 0.000003 -0.000002 -0.000000 0.000002 0.000000 -0.000000 -0.000001 0.000001 -0.000000 -0.000001 0.000001 -0.000000 0.000000 0.000000 
0.798523 75.021141 -0.420954 9.517230 -61.610287 10.088800 -0.000000 0.000002 -0.000000 -36.583135 11.857694 23.514009 35.910467 -3.929420 1.411473 -5.482481 -5.030975 -16.573314 -0.000000 0.000000 -0.000000 -0.000000 0.000000 0.000000 -0.000000 0.000002 -0.000001 -31.092401 -19.602445 -32.235761 34.939402 2.661294 -4.181409 -10.967524 1.568610 22.728064 0.000000 -0.000000 -0.000000 0.000000 -0.000000 -0.000000 0.000001 -0.000000 -0.000000 14.828226 -0.239285 -4.244434 5.543621 0.658339 -2.729077 5.552762 0.728272 -2.796342 -3.561651 1.480933 3.747977 -18.829447 54.728216 2.022582 0.000001 0.000000 -0.000000 0.000001 0.000000 -0.000000 0.000001 0.000000 -0.000000 1.813548 -3.171690 -12.275361 -38.492371 26.468117 -34.848749 0.415362 -46.962089 0.395611 -10.487590 -0.228614 0.606230 40.109924 -15.297190 -0.360472 5.639876 28.097850 11.338797 0.000001 0.000001 0.000000 6.882162 2.840039 -61.140445 8.248008 7.640093 -89.897850 -0.000006 0.000002 -0.000001 -2.345557 4.688829 -62.655224 8.754116 9.897130 -87.051253 0.000002 0.000001 -0.000001 -9.042522 10.045666 -60.766185 8.524064 9.508847 -66.893008 -0.000003 -0.000001 -0.000002 -17.946979 14.754966 -51.485891 8.868473 8.667046 -84.811989 0.000000 -0.000000 0.000001 -0.000002 0.000002 -0.000001 0.629745 7.251001 8.685421 7.802483 -9.059885 53.538714 -22.779938 35.929817 17.833038 -27.322374 9.760346 -18.497126 -2.346146 -6.100496 10.731448 2.364050 -23.806279 -8.771105 0.000001 0.000001 -0.000001 -0.056457 0.490876 0.999348 0.030202 -0.188474 5.776441 0.000000 0.000000 0.000007 0.351169 -5.979436 2.955207 1.490037 -4.329886 24.909186 0.000001 0.000001 -0.000004 1.274741 -11.765397 4.746712 1.855837 -3.890047 27.644748 -0.000000 0.000001 0.000006 2.369883 -19.209168 12.117454 3.411685 -2.284130 19.830040 0.000002 -0.000001 -0.000003 -0.000000 0.000001 0.000001 -0.000002 -0.000003 0.000001 -0.000002 -0.000003 0.000001 -0.000002 -0.000003 0.000001 -0.000002 -0.000003 0.000001 -0.000002 -0.000003 0.000002 -0.000002 0.000002 -0.000002 -0.000002 -0.000003 0.000001 -0.000002 -0.000003 0.000002 -0.000002 0.000002 -0.000002 0.000000 0.000000 -0.000000 0.000000 0.000000 -0.000000 -0.000000 0.000002 -0.000000 
0.707765 75.109085 -0.415025 9.458756 -61.577113 10.001201 -0.000000 0.000001 0.000000 -36.268035 11.855240 23.472019 35.515952 -5.026256 1.322011 -5.338411 -3.895016 -16.434420 0.000000 0.000002 -0.000000 0.000000 0.000002 -0.000000 0.000000 -0.000002 0.000000 -30.679987 -19.671034 -31.992722 34.548753 2.998537 -4.183014 -10.854691 1.039068 22.650659 0.000000 0.000000 0.000000 0.000000 0.000000 0.000000 0.000000 -0.000000 -0.000001 14.442416 -0.102346 -4.193056 5.214331 0.730858 -2.643759 5.266423 0.797820 -2.727319 -3.366200 1.590499 3.750509 -17.376163 54.720518 1.363864 -0.000001 -0.000000 0.000000 -0.000001 -0.000000 0.000000 -0.000001 -0.000000 0.000000 1.772470 -3.111102 -12.286912 -37.604768 26.594006 -34.505412 0.419400 -47.414183 0.401145 -10.985137 -0.505591 1.286173 40.109917 -15.297190 -0.360466 5.639874 28.097851 11.338791 -0.000000 0.000000 0.000001 6.882162 2.840036 -61.140445 8.248010 7.640091 -89.897850 -0.000005 0.000000 -0.000000 -2.345561 4.688830 -62.655224 8.754115 9.897128 -87.051253 0.000001 -0.000002 -0.000000 -9.042523 10.045661 -60.766178 8.524057 9.508853 -66.893008 -0.000002 0.000001 -0.000005 -17.946979 14.754959 -51.485887 8.868476 8.667044 -84.811989 -0.000001 -0.000001 0.000003 -0.000000 0.000000 0.000002 0.622317 7.246158 8.633455 7.621393 -8.531443 53.754415 -22.549975 35.217664 17.486198 -27.032909 9.254427 -18.893449 -2.346148 -6.100495 10.731451 2.364050 -23.806281 -8.771109 0.000000 0.000001 0.000002 -0.059254 0.374635 1.733668 0.063993 -0.472836 7.742791 0.000000 0.000003 0.000002 0.361726 -6.151023 4.002046 1.661732 -4.679045 27.325389 -0.000000 -0.000001 -0.000000 1.469284 -11.788021 6.414746 2.036333 -4.218453 29.841933 0.000002 0.000002 -0.000001 3.053891 -19.297103 14.366162 3.587119 -2.735057 22.653425 -0.000000 -0.000000 0.000000 -0.000001 0.000001 0.000001 0.000002 0.000002 -0.000001 0.000002 0.000002 -0.000001 0.000002 0.000002 -0.000001 0.000002 0.000002 -0.000001 0.000002 0.000002 -0.000001 -0.000000 -0.000000 0.000000 0.000002 0.000002 -0.000001 0.000002 0.000002 -0.000001 -0.000000 -0.000000 0.000000 0.000001 -0.000000 0.000000 0.000001 -0.000000 0.000000 -0.000000 0.000001 0.000000 
0.564173 75.242813 -0.406929 9.372350 -61.521419 9.891747 -0.000000 -0.000000 0.000000 -35.770090 11.862290 23.397698 34.848417 -4.960497 1.321026 -5.134722 -3.883310 -16.540640 -0.000000 0.000003 -0.000000 -0.000000 0.000003 -0.000000 -0.000000 0.000000 -0.000000 -30.059359 -19.761494 -31.662264 33.921578 2.976343 -4.201343 -10.693098 0.760326 22.669381 -0.000000 -0.000000 -0.000000 -0.000000 -0.000000 -0.000000 -0.000000 -0.000000 0.000001 13.910956 0.086142 -4.126973 4.855321 0.800374 -2.540310 4.970065 0.867598 -2.643072 -3.058898 1.762753 3.755374 -15.563921 54.778961 0.426834 -0.000000 -0.000000 0.000001 -0.000000 -0.000000 0.000001 -0.000000 -0.000000 0.000001 1.708421 -3.014209 -12.306572 -36.645970 26.719142 -33.937707 0.419619 -48.143087 0.400950 -11.780741 -0.962960 2.323799 40.109920 -15.297189 -0.360469 5.639876 28.097850 11.338793 -0.000001 -0.000001 -0.000000 6.882164 2.840039 -61.140445 8.248011 7.640088 -89.897850 0.000002 -0.000001 -0.000004 -2.345561 4.688831 -62.655224 8.754111 9.897121 -87.051253 0.000004 -0.000000 -0.000003 -9.042525 10.045664 -60.766185 8.524062 9.508845 -66.893008 0.000001 0.000001 -0.000002 -17.946971 14.754969 -51.485891 8.868475 8.667049 -84.811989 -0.000001 -0.000003 0.000004 0.000001 -0.000000 0.000001 0.612859 7.227821 8.553528 7.510343 -8.058547 54.049797 -22.209738 34.116023 16.961585 -26.597776 8.909269 -19.069306 -2.346147 -6.100495 10.731457 2.364051 -23.806278 -8.771098 0.000000 -0.000000 0.000003 -0.056528 0.194515 2.871611 0.135480 -0.910879 10.791005 -0.000001 -0.000000 0.000002 0.384148 -6.416487 5.625058 1.956873 -5.205197 31.074782 -0.000001 0.000001 -0.000000 1.771871 -11.812079 9.000260 2.340996 -4.713241 33.251229 -0.000001 0.000000 0.000004 4.101100 -19.344129 17.852929 3.902459 -3.415209 27.034290 0.000001 -0.000001 0.000000 -0.000001 0.000001 0.000002 -0.000001 -0.000002 0.000000 -0.000001 -0.000002 0.000000 -0.000001 -0.000002 0.000000 -0.000001 -0.000002 0.000000 -0.000001 -0.000002 0.000001 -0.000003 -0.000002 -0.000000 -0.000001 -0.000002 0.000000 -0.000001 -0.000002 0.000001 -0.000003 -0.000002 -0.000000 0.000000 -0.000000 0.000000 0.000000 -0.000000 0.000000 -0.000000 -0.000000 0.000000 
